<svg xmlns="http://www.w3.org/2000/svg" viewBox="0 0 80 80" fill="none">
  <!-- CNC machine head -->
  <rect x="28" y="8" width="24" height="14" rx="2" stroke="#1F1F1F" stroke-width="2"/>
  <path d="M40 22 L40 34" stroke="#1F1F1F" stroke-width="2.5" stroke-linecap="round"/>
  <rect x="36" y="34" width="8" height="6" stroke="#1F1F1F" stroke-width="1.8"/>
  <!-- Conveyor belt -->
  <rect x="8" y="52" width="64" height="10" rx="2" stroke="#1F1F1F" stroke-width="2"/>
  <circle cx="16" cy="57" r="5" stroke="#1F1F1F" stroke-width="2"/>
  <circle cx="64" cy="57" r="5" stroke="#1F1F1F" stroke-width="2"/>
  <!-- Parts on belt -->
  <path d="M24 45 L24 52" stroke="#1F1F1F" stroke-width="1.5"/>
  <path d="M20 45 L20 40 L28 40 L28 52 L20 52 L20 45 Z" stroke="#1F1F1F" stroke-width="1.5" stroke-linejoin="round"/>
  <path d="M36 43 L36 52" stroke="#1F1F1F" stroke-width="1.5"/>
  <path d="M32 43 L32 38 L40 38 L40 52 L32 52 L32 43 Z" stroke="#1F1F1F" stroke-width="1.5" stroke-linejoin="round"/>
  <path d="M48 45 L48 52" stroke="#1F1F1F" stroke-width="1.5"/>
  <path d="M44 45 L44 40 L52 40 L52 52 L44 52 L44 45 Z" stroke="#1F1F1F" stroke-width="1.5" stroke-linejoin="round"/>
</svg>
